<svg version="1.1" xmlns="http://www.w3.org/2000/svg" xmlns:xlink="http://www.w3.org/1999/xlink" width="912.04443359375" height="373"><defs/><g><g transform="translate(-22,-20) scale(1,1)"><rect fill="#ffffff" stroke="none" x="128" y="45" width="255" height="338"/></g><g transform="translate(-22,-20) scale(1,1)"><path fill="none" stroke="#000000" d="M 128 45 L 383 45 L 383 383 L 128 383 L 128 45 Z Z" stroke-miterlimit="10"/></g><g transform="translate(-22,-20) scale(1,1)"><rect fill="#ffffff" stroke="none" x="128" y="30" width="102" height="15"/></g><g transform="translate(-22,-20) scale(1,1)"><path fill="none" stroke="#000000" d="M 128 30 L 230 30 L 230 45 L 128 45 L 128 30 Z Z" stroke-miterlimit="10"/></g><g transform="translate(-22,-20) scale(1,1)"><rect fill="#ffffff" stroke="none" x="128" y="44" width="255" height="339"/></g><g transform="translate(-22,-20) scale(1,1)"><path fill="none" stroke="#000000" d="M 128 44 L 383 44 L 383 383 L 128 383 L 128 44 Z Z" stroke-miterlimit="10"/></g><g transform="translate(-22,-20) scale(1,1)"><path fill="none" stroke="#000000" d="M 222 33 L 222 37" stroke-miterlimit="10"/></g><g transform="translate(-22,-20) scale(1,1)"><path fill="none" stroke="#000000" d="M 219 41 L 219 37 L 225 37" stroke-miterlimit="10"/></g><g transform="translate(-22,-20) scale(1,1)"><path fill="none" stroke="#000000" d="M 225 41 L 225 37 L 219 37" stroke-miterlimit="10"/></g><g transform="translate(-22,-20) scale(1,1)"><g><path fill="none" stroke="none"/><text fill="#000000" stroke="none" font-family="Arial" font-size="13px" font-style="normal" font-weight="normal" text-decoration="none" x="228.40185546875" y="62.5">«Library»</text></g></g><g transform="translate(-22,-20) scale(1,1)"><g><path fill="none" stroke="none"/><text fill="#000000" stroke="none" font-family="Arial" font-size="13px" font-style="normal" font-weight="bold" text-decoration="none" x="200.9482421875" y="77.5">Data Access Layer</text></g></g><g transform="translate(-22,-20) scale(1,1)"><g><path fill="none" stroke="none"/><text fill="#000000" stroke="none" font-family="Arial" font-size="13px" font-style="normal" font-weight="normal" text-decoration="none" x="206.385009765625" y="92.5">(from Three Tier)</text></g></g><g transform="translate(-22,-20) scale(1,1)"><path fill="none" stroke="#000000" d="M 64.67154717612101 95.5104903641278 A 21.5 21.5 0 0 1 63.32845282387899 138.4895096358722" stroke-miterlimit="10"/></g><g transform="translate(-22,-20) scale(1,1)"><g><path fill="none" stroke="none"/><text fill="#000000" stroke="none" font-family="Arial" font-size="9px" font-style="normal" font-weight="bold" text-decoration="none" x="40.491455078125" y="154.5">SQL Server</text></g></g><g transform="translate(-22,-20) scale(1,1)"><rect fill="#ffffff" stroke="none" x="213" y="96" width="150" height="64"/></g><g transform="translate(-22,-20) scale(1,1)"><path fill="none" stroke="#000000" d="M 213 96 L 363 96 L 363 160 L 213 160 L 213 96 Z Z" stroke-miterlimit="10"/></g><g transform="translate(-22,-20) scale(1,1)"><rect fill="#ffffff" stroke="none" x="203" y="103" width="20" height="10"/></g><g transform="translate(-22,-20) scale(1,1)"><path fill="none" stroke="#000000" d="M 203 103 L 223 103 L 223 113 L 203 113 L 203 103 Z Z" stroke-miterlimit="10"/></g><g transform="translate(-22,-20) scale(1,1)"><rect fill="#ffffff" stroke="none" x="203" y="123" width="20" height="10"/></g><g transform="translate(-22,-20) scale(1,1)"><path fill="none" stroke="#000000" d="M 203 123 L 223 123 L 223 133 L 203 133 L 203 123 Z Z" stroke-miterlimit="10"/></g><g transform="translate(-22,-20) scale(1,1)"><g><path fill="none" stroke="none"/><text fill="#000000" stroke="none" font-family="Arial" font-size="13px" font-style="normal" font-weight="bold" text-decoration="none" x="245.3037109375" y="115.5">SQL Connection</text></g></g><g transform="translate(-22,-20) scale(1,1)"><rect fill="#ffffff" stroke="none" x="213" y="188" width="150" height="64"/></g><g transform="translate(-22,-20) scale(1,1)"><path fill="none" stroke="#000000" d="M 213 188 L 363 188 L 363 252 L 213 252 L 213 188 Z Z" stroke-miterlimit="10"/></g><g transform="translate(-22,-20) scale(1,1)"><rect fill="#ffffff" stroke="none" x="203" y="195" width="20" height="10"/></g><g transform="translate(-22,-20) scale(1,1)"><path fill="none" stroke="#000000" d="M 203 195 L 223 195 L 223 205 L 203 205 L 203 195 Z Z" stroke-miterlimit="10"/></g><g transform="translate(-22,-20) scale(1,1)"><rect fill="#ffffff" stroke="none" x="203" y="215" width="20" height="10"/></g><g transform="translate(-22,-20) scale(1,1)"><path fill="none" stroke="#000000" d="M 203 215 L 223 215 L 223 225 L 203 225 L 203 215 Z Z" stroke-miterlimit="10"/></g><g transform="translate(-22,-20) scale(1,1)"><g><path fill="none" stroke="none"/><text fill="#000000" stroke="none" font-family="Arial" font-size="13px" font-style="normal" font-weight="bold" text-decoration="none" x="236.2900390625" y="207.5">CRUD Repositories</text></g></g><g transform="translate(-22,-20) scale(1,1)"><path fill="none" stroke="#000000" d="M 260 188 L 260 160" stroke-miterlimit="10" stroke-dasharray="3"/></g><g transform="translate(-22,-20) scale(1,1)"><path fill="none" stroke="#000000" d="M 264.209517756016 170.16267485762415 L 260 160 L 255.790482243984 170.16267485762415" stroke-miterlimit="10"/></g><g transform="translate(-22,-20) scale(1,1)"><g><path fill="none" stroke="none"/><text fill="#000000" stroke="none" font-family="Arial" font-size="13px" font-style="normal" font-weight="normal" text-decoration="none" x="209.5" y="179.5">«uses»</text></g></g><g transform="translate(-22,-20) scale(1,1)"><rect fill="#ffffff" stroke="none" x="486" y="45" width="252" height="338"/></g><g transform="translate(-22,-20) scale(1,1)"><path fill="none" stroke="#000000" d="M 486 45 L 738 45 L 738 383 L 486 383 L 486 45 Z Z" stroke-miterlimit="10"/></g><g transform="translate(-22,-20) scale(1,1)"><rect fill="#ffffff" stroke="none" x="486" y="30" width="100.79999999999995" height="15"/></g><g transform="translate(-22,-20) scale(1,1)"><path fill="none" stroke="#000000" d="M 486 30 L 586.8 30 L 586.8 45 L 486 45 L 486 30 Z Z" stroke-miterlimit="10"/></g><g transform="translate(-22,-20) scale(1,1)"><rect fill="#ffffff" stroke="none" x="486" y="44" width="252" height="339"/></g><g transform="translate(-22,-20) scale(1,1)"><path fill="none" stroke="#000000" d="M 486 44 L 738 44 L 738 383 L 486 383 L 486 44 Z Z" stroke-miterlimit="10"/></g><g transform="translate(-22,-20) scale(1,1)"><path fill="none" stroke="#000000" d="M 578.8 33 L 578.8 37" stroke-miterlimit="10"/></g><g transform="translate(-22,-20) scale(1,1)"><path fill="none" stroke="#000000" d="M 575.8 41 L 575.8 37 L 581.8 37" stroke-miterlimit="10"/></g><g transform="translate(-22,-20) scale(1,1)"><path fill="none" stroke="#000000" d="M 581.8 41 L 581.8 37 L 575.8 37" stroke-miterlimit="10"/></g><g transform="translate(-22,-20) scale(1,1)"><g><path fill="none" stroke="none"/><text fill="#000000" stroke="none" font-family="Arial" font-size="13px" font-style="normal" font-weight="normal" text-decoration="none" x="584.90185546875" y="62.5">«Library»</text></g></g><g transform="translate(-22,-20) scale(1,1)"><g><path fill="none" stroke="none"/><text fill="#000000" stroke="none" font-family="Arial" font-size="13px" font-style="normal" font-weight="bold" text-decoration="none" x="550.215087890625" y="77.5">Business Logic Layer</text></g></g><g transform="translate(-22,-20) scale(1,1)"><g><path fill="none" stroke="none"/><text fill="#000000" stroke="none" font-family="Arial" font-size="13px" font-style="normal" font-weight="normal" text-decoration="none" x="562.885009765625" y="92.5">(from Three Tier)</text></g></g><g transform="translate(-22,-20) scale(1,1)"><rect fill="#ffffff" stroke="none" x="583" y="110" width="134" height="48"/></g><g transform="translate(-22,-20) scale(1,1)"><path fill="none" stroke="#000000" d="M 583 110 L 717 110 L 717 158 L 583 158 L 583 110 Z Z" stroke-miterlimit="10"/></g><g transform="translate(-22,-20) scale(1,1)"><rect fill="#ffffff" stroke="none" x="573" y="117" width="20" height="10"/></g><g transform="translate(-22,-20) scale(1,1)"><path fill="none" stroke="#000000" d="M 573 117 L 593 117 L 593 127 L 573 127 L 573 117 Z Z" stroke-miterlimit="10"/></g><g transform="translate(-22,-20) scale(1,1)"><rect fill="#ffffff" stroke="none" x="573" y="137" width="20" height="10"/></g><g transform="translate(-22,-20) scale(1,1)"><path fill="none" stroke="#000000" d="M 573 137 L 593 137 L 593 147 L 573 147 L 573 137 Z Z" stroke-miterlimit="10"/></g><g transform="translate(-22,-20) scale(1,1)"><g><path fill="none" stroke="none"/><text fill="#000000" stroke="none" font-family="Arial" font-size="13px" font-style="normal" font-weight="bold" text-decoration="none" x="610.921875" y="129.5">Client Manager</text></g></g><g transform="translate(-22,-20) scale(1,1)"><path fill="none" stroke="#000000" d="M 173 256.5 A 11.5 11.5 0 0 1 173 279.5" stroke-miterlimit="10"/></g><g transform="translate(-22,-20) scale(1,1)"><path fill="#ffffff" stroke="none" d="M 164.517578125 268.5 C 164.517578125 263.8055792 168.323157325 260 173.017578125 260 C 177.711998925 260 181.517578125 263.8055792 181.517578125 268.5 C 181.517578125 273.1944208 177.711998925 277 173.017578125 277 C 168.323157325 277 164.517578125 273.1944208 164.517578125 268.5 Z"/></g><g transform="translate(-22,-20) scale(1,1)"><path fill="none" stroke="#000000" d="M 164.517578125 268.5 C 164.517578125 263.8055792 168.323157325 260 173.017578125 260 C 177.711998925 260 181.517578125 263.8055792 181.517578125 268.5 C 181.517578125 273.1944208 177.711998925 277 173.017578125 277 C 168.323157325 277 164.517578125 273.1944208 164.517578125 268.5 Z" stroke-miterlimit="10"/></g><g transform="translate(-22,-20) scale(1,1)"><g><path fill="none" stroke="none"/><text fill="#000000" stroke="none" font-family="Arial" font-size="9px" font-style="normal" font-weight="bold" text-decoration="none" x="135.002685546875" y="295.5">Client Data Access</text></g></g><g transform="translate(-22,-20) scale(1,1)"><path fill="none" stroke="#000000" d="M 203 220 L 173 220 L 173 257" stroke-miterlimit="10"/></g><g transform="translate(-22,-20) scale(1,1)"><path fill="none" stroke="#000000" d="M 521 171 L 508 171 L 508 267 L 493 267" stroke-miterlimit="10" stroke-dasharray="3"/></g><g transform="translate(-22,-20) scale(1,1)"><path fill="none" stroke="#000000" d="M 503.16267485762415 262.790482243984 L 493 267 L 503.16267485762415 271.209517756016" stroke-miterlimit="10"/></g><g transform="translate(-22,-20) scale(1,1)"><path fill="none" stroke="#000000" d="M 573 206 L 557 206 L 557 176 L 544 176" stroke-miterlimit="10"/></g><g transform="translate(-22,-20) scale(1,1)"><path fill="none" stroke="#000000" d="M 227 252 L 227 294" stroke-miterlimit="10"/></g><g transform="translate(-22,-20) scale(1,1)"><rect fill="#ffffff" stroke="none" x="583" y="174" width="134" height="48"/></g><g transform="translate(-22,-20) scale(1,1)"><path fill="none" stroke="#000000" d="M 583 174 L 717 174 L 717 222 L 583 222 L 583 174 Z Z" stroke-miterlimit="10"/></g><g transform="translate(-22,-20) scale(1,1)"><rect fill="#ffffff" stroke="none" x="573" y="181" width="20" height="10"/></g><g transform="translate(-22,-20) scale(1,1)"><path fill="none" stroke="#000000" d="M 573 181 L 593 181 L 593 191 L 573 191 L 573 181 Z Z" stroke-miterlimit="10"/></g><g transform="translate(-22,-20) scale(1,1)"><rect fill="#ffffff" stroke="none" x="573" y="201" width="20" height="10"/></g><g transform="translate(-22,-20) scale(1,1)"><path fill="none" stroke="#000000" d="M 573 201 L 593 201 L 593 211 L 573 211 L 573 201 Z Z" stroke-miterlimit="10"/></g><g transform="translate(-22,-20) scale(1,1)"><g><path fill="none" stroke="none"/><text fill="#000000" stroke="none" font-family="Arial" font-size="13px" font-style="normal" font-weight="bold" text-decoration="none" x="622.1318359375" y="193.5">Client Filter</text></g></g><g transform="translate(-22,-20) scale(1,1)"><path fill="none" stroke="#000000" d="M 573 251 L 560 251 L 560 301 L 544 301" stroke-miterlimit="10"/></g><g transform="translate(-22,-20) scale(1,1)"><path fill="none" stroke="#000000" d="M 573 331 L 560 331 L 560 311 L 544 311" stroke-miterlimit="10"/></g><g transform="translate(-22,-20) scale(1,1)"><rect fill="#ffffff" stroke="none" x="376" y="266" width="14" height="14"/></g><g transform="translate(-22,-20) scale(1,1)"><path fill="none" stroke="#000000" d="M 376 266 L 390 266 L 390 280 L 376 280 L 376 266 Z Z" stroke-miterlimit="10"/></g><g transform="translate(-22,-20) scale(1,1)"><g><path fill="none" stroke="none"/><text fill="#000000" stroke="none" font-family="Arial" font-size="0px" font-style="normal" font-weight="normal" text-decoration="none" x="367.5" y="257.5">Port1</text></g></g><g transform="translate(-22,-20) scale(1,1)"><rect fill="#ffffff" stroke="none" x="583" y="238" width="134" height="48"/></g><g transform="translate(-22,-20) scale(1,1)"><path fill="none" stroke="#000000" d="M 583 238 L 717 238 L 717 286 L 583 286 L 583 238 Z Z" stroke-miterlimit="10"/></g><g transform="translate(-22,-20) scale(1,1)"><rect fill="#ffffff" stroke="none" x="573" y="245" width="20" height="10"/></g><g transform="translate(-22,-20) scale(1,1)"><path fill="none" stroke="#000000" d="M 573 245 L 593 245 L 593 255 L 573 255 L 573 245 Z Z" stroke-miterlimit="10"/></g><g transform="translate(-22,-20) scale(1,1)"><rect fill="#ffffff" stroke="none" x="573" y="265" width="20" height="10"/></g><g transform="translate(-22,-20) scale(1,1)"><path fill="none" stroke="#000000" d="M 573 265 L 593 265 L 593 275 L 573 275 L 573 265 Z Z" stroke-miterlimit="10"/></g><g transform="translate(-22,-20) scale(1,1)"><g><path fill="none" stroke="none"/><text fill="#000000" stroke="none" font-family="Arial" font-size="13px" font-style="normal" font-weight="bold" text-decoration="none" x="602.974609375" y="257.5">Contract Manager</text></g></g><g transform="translate(-22,-20) scale(1,1)"><rect fill="#ffffff" stroke="none" x="583" y="302" width="134" height="48"/></g><g transform="translate(-22,-20) scale(1,1)"><path fill="none" stroke="#000000" d="M 583 302 L 717 302 L 717 350 L 583 350 L 583 302 Z Z" stroke-miterlimit="10"/></g><g transform="translate(-22,-20) scale(1,1)"><rect fill="#ffffff" stroke="none" x="573" y="309" width="20" height="10"/></g><g transform="translate(-22,-20) scale(1,1)"><path fill="none" stroke="#000000" d="M 573 309 L 593 309 L 593 319 L 573 319 L 573 309 Z Z" stroke-miterlimit="10"/></g><g transform="translate(-22,-20) scale(1,1)"><rect fill="#ffffff" stroke="none" x="573" y="329" width="20" height="10"/></g><g transform="translate(-22,-20) scale(1,1)"><path fill="none" stroke="#000000" d="M 573 329 L 593 329 L 593 339 L 573 339 L 573 329 Z Z" stroke-miterlimit="10"/></g><g transform="translate(-22,-20) scale(1,1)"><g><path fill="none" stroke="none"/><text fill="#000000" stroke="none" font-family="Arial" font-size="13px" font-style="normal" font-weight="bold" text-decoration="none" x="614.1845703125" y="321.5">Contract Filter</text></g></g><g transform="translate(-22,-20) scale(1,1)"><rect fill="#ffffff" stroke="none" x="121" y="108" width="14" height="14"/></g><g transform="translate(-22,-20) scale(1,1)"><path fill="none" stroke="#000000" d="M 121 108 L 135 108 L 135 122 L 121 122 L 121 108 Z Z" stroke-miterlimit="10"/></g><g transform="translate(-22,-20) scale(1,1)"><g><path fill="none" stroke="none"/><text fill="#000000" stroke="none" font-family="Arial" font-size="0px" font-style="normal" font-weight="normal" text-decoration="none" x="112.5" y="99.5">Port2</text></g></g><g transform="translate(-22,-20) scale(1,1)"><path fill="none" stroke="#000000" d="M 121 117.671875 L 85.5 117.671875" stroke-miterlimit="10"/></g><g transform="translate(-22,-20) scale(1,1)"><path fill="none" stroke="#000000" d="M 168 106.5 A 11.5 11.5 0 0 1 168 129.5" stroke-miterlimit="10"/></g><g transform="translate(-22,-20) scale(1,1)"><g><path fill="none" stroke="none"/><text fill="#000000" stroke="none" font-family="Arial" font-size="0px" font-style="normal" font-weight="bold" text-decoration="none" x="168.5" y="136.5">SQL Server</text></g></g><g transform="translate(-22,-20) scale(1,1)"><path fill="none" stroke="#000000" d="M 157 119 L 135 119" stroke-miterlimit="10" stroke-dasharray="3"/></g><g transform="translate(-22,-20) scale(1,1)"><path fill="none" stroke="#000000" d="M 145.16267485762415 114.79048224398402 L 135 119 L 145.16267485762415 123.20951775601598" stroke-miterlimit="10"/></g><g transform="translate(-22,-20) scale(1,1)"><path fill="none" stroke="#000000" d="M 203 118 L 180 118" stroke-miterlimit="10"/></g><g transform="translate(-22,-20) scale(1,1)"><path fill="none" stroke="#000000" d="M 376 268 L 184.517578125 268" stroke-miterlimit="10"/></g><g transform="translate(-22,-20) scale(1,1)"><path fill="none" stroke="#000000" d="M 431 256.5 A 11.5 11.5 0 0 1 431 279.5" stroke-miterlimit="10"/></g><g transform="translate(-22,-20) scale(1,1)"><g><path fill="none" stroke="none"/><text fill="#000000" stroke="none" font-family="Arial" font-size="0px" font-style="normal" font-weight="bold" text-decoration="none" x="431.5" y="286.5">Interface1</text></g></g><g transform="translate(-22,-20) scale(1,1)"><path fill="none" stroke="#000000" d="M 420 268 L 390 268" stroke-miterlimit="10" stroke-dasharray="3"/></g><g transform="translate(-22,-20) scale(1,1)"><path fill="none" stroke="#000000" d="M 400.16267485762415 263.790482243984 L 390 268 L 400.16267485762415 272.209517756016" stroke-miterlimit="10"/></g><g transform="translate(-22,-20) scale(1,1)"><rect fill="#ffffff" stroke="none" x="479" y="261" width="14" height="14"/></g><g transform="translate(-22,-20) scale(1,1)"><path fill="none" stroke="#000000" d="M 479 261 L 493 261 L 493 275 L 479 275 L 479 261 Z Z" stroke-miterlimit="10"/></g><g transform="translate(-22,-20) scale(1,1)"><g><path fill="none" stroke="none"/><text fill="#000000" stroke="none" font-family="Arial" font-size="0px" font-style="normal" font-weight="normal" text-decoration="none" x="470.5" y="252.5">Port1</text></g></g><g transform="translate(-22,-20) scale(1,1)"><path fill="none" stroke="#000000" d="M 479 268 L 443 268" stroke-miterlimit="10"/></g><g transform="translate(-22,-20) scale(1,1)"><path fill="none" stroke="#000000" d="M 537.1429563482495 159.71408730350097 A 11.5 11.5 0 0 1 526.8570436517505 180.28591269649903" stroke-miterlimit="10"/></g><g transform="translate(-22,-20) scale(1,1)"><path fill="none" stroke="#000000" d="M 527.5769230769231 159.3846153846154 A 11.5 11.5 0 0 1 536.4230769230769 180.6153846153846" stroke-miterlimit="10"/></g><g transform="translate(-22,-20) scale(1,1)"><g><path fill="none" stroke="none"/><text fill="#000000" stroke="none" font-family="Arial" font-size="0px" font-style="normal" font-weight="bold" text-decoration="none" x="532.5" y="188.5">Interface2</text></g></g><g transform="translate(-22,-20) scale(1,1)"><path fill="none" stroke="#000000" d="M 573 122 L 556 122 L 556 165 L 544 165" stroke-miterlimit="10"/></g><g transform="translate(-22,-20) scale(1,1)"><path fill="none" stroke="#000000" d="M 228 293.5 A 11.5 11.5 0 0 1 228 316.5" stroke-miterlimit="10"/></g><g transform="translate(-22,-20) scale(1,1)"><path fill="#ffffff" stroke="none" d="M 219.518310546875 305.5 C 219.518310546875 300.8055792 223.323889746875 297 228.018310546875 297 C 232.712731346875 297 236.518310546875 300.8055792 236.518310546875 305.5 C 236.518310546875 310.1944208 232.712731346875 314 228.018310546875 314 C 223.323889746875 314 219.518310546875 310.1944208 219.518310546875 305.5 Z"/></g><g transform="translate(-22,-20) scale(1,1)"><path fill="none" stroke="#000000" d="M 219.518310546875 305.5 C 219.518310546875 300.8055792 223.323889746875 297 228.018310546875 297 C 232.712731346875 297 236.518310546875 300.8055792 236.518310546875 305.5 C 236.518310546875 310.1944208 232.712731346875 314 228.018310546875 314 C 223.323889746875 314 219.518310546875 310.1944208 219.518310546875 305.5 Z" stroke-miterlimit="10"/></g><g transform="translate(-22,-20) scale(1,1)"><g><path fill="none" stroke="none"/><text fill="#000000" stroke="none" font-family="Arial" font-size="9px" font-style="normal" font-weight="bold" text-decoration="none" x="184.50146484375" y="332.5">Contract Data Access</text></g></g><g transform="translate(-22,-20) scale(1,1)"><rect fill="#ffffff" stroke="none" x="376" y="298" width="14" height="14"/></g><g transform="translate(-22,-20) scale(1,1)"><path fill="none" stroke="#000000" d="M 376 298 L 390 298 L 390 312 L 376 312 L 376 298 Z Z" stroke-miterlimit="10"/></g><g transform="translate(-22,-20) scale(1,1)"><g><path fill="none" stroke="none"/><text fill="#000000" stroke="none" font-family="Arial" font-size="0px" font-style="normal" font-weight="normal" text-decoration="none" x="367.5" y="289.5">Port3</text></g></g><g transform="translate(-22,-20) scale(1,1)"><path fill="none" stroke="#000000" d="M 376 305 L 239.518310546875 305" stroke-miterlimit="10"/></g><g transform="translate(-22,-20) scale(1,1)"><path fill="none" stroke="#000000" d="M 432.044976981682 296.53972378018386 A 11.5 11.5 0 0 1 433.955023018318 319.46027621981614" stroke-miterlimit="10"/></g><g transform="translate(-22,-20) scale(1,1)"><g><path fill="none" stroke="none"/><text fill="#000000" stroke="none" font-family="Arial" font-size="0px" font-style="normal" font-weight="bold" text-decoration="none" x="433.5" y="326.5">Interface3</text></g></g><g transform="translate(-22,-20) scale(1,1)"><path fill="none" stroke="#000000" d="M 422 306 L 390 306" stroke-miterlimit="10" stroke-dasharray="3"/></g><g transform="translate(-22,-20) scale(1,1)"><path fill="none" stroke="#000000" d="M 400.16267485762415 301.790482243984 L 390 306 L 400.16267485762415 310.209517756016" stroke-miterlimit="10"/></g><g transform="translate(-22,-20) scale(1,1)"><rect fill="#ffffff" stroke="none" x="479" y="300" width="14" height="14"/></g><g transform="translate(-22,-20) scale(1,1)"><path fill="none" stroke="#000000" d="M 479 300 L 493 300 L 493 314 L 479 314 L 479 300 Z Z" stroke-miterlimit="10"/></g><g transform="translate(-22,-20) scale(1,1)"><g><path fill="none" stroke="none"/><text fill="#000000" stroke="none" font-family="Arial" font-size="0px" font-style="normal" font-weight="normal" text-decoration="none" x="470.5" y="291.5">Port2</text></g></g><g transform="translate(-22,-20) scale(1,1)"><path fill="none" stroke="#000000" d="M 479 307 L 445 307" stroke-miterlimit="10"/></g><g transform="translate(-22,-20) scale(1,1)"><path fill="none" stroke="#000000" d="M 528.3633806908064 294.0901420724191 A 11.5 11.5 0 0 1 535.6366193091936 315.9098579275809" stroke-miterlimit="10"/></g><g transform="translate(-22,-20) scale(1,1)"><path fill="none" stroke="#000000" d="M 537.1429563482495 294.71408730350095 A 11.5 11.5 0 0 1 526.8570436517505 315.28591269649905" stroke-miterlimit="10"/></g><g transform="translate(-22,-20) scale(1,1)"><g><path fill="none" stroke="none"/><text fill="#000000" stroke="none" font-family="Arial" font-size="0px" font-style="normal" font-weight="bold" text-decoration="none" x="532.5" y="323.5">Interface4</text></g></g><g transform="translate(-22,-20) scale(1,1)"><path fill="none" stroke="#000000" d="M 521 307 L 493 307" stroke-miterlimit="10" stroke-dasharray="3"/></g><g transform="translate(-22,-20) scale(1,1)"><path fill="none" stroke="#000000" d="M 503.16267485762415 302.790482243984 L 493 307 L 503.16267485762415 311.209517756016" stroke-miterlimit="10"/></g><g transform="translate(-22,-20) scale(1,1)"><rect fill="#ffffff" stroke="none" x="798" y="45" width="126.04443359375" height="52"/></g><g transform="translate(-22,-20) scale(1,1)"><path fill="none" stroke="#000000" d="M 798 45 L 924.04443359375 45 L 924.04443359375 97 L 798 97 L 798 45 Z Z" stroke-miterlimit="10"/></g><g transform="translate(-22,-20) scale(1,1)"><rect fill="#ffffff" stroke="none" x="798" y="30" width="50.417773437500045" height="15"/></g><g transform="translate(-22,-20) scale(1,1)"><path fill="none" stroke="#000000" d="M 798 30 L 848.4177734375 30 L 848.4177734375 45 L 798 45 L 798 30 Z Z" stroke-miterlimit="10"/></g><g transform="translate(-22,-20) scale(1,1)"><rect fill="#ffffff" stroke="none" x="798" y="44" width="126.04443359375" height="53"/></g><g transform="translate(-22,-20) scale(1,1)"><path fill="none" stroke="#000000" d="M 798 44 L 924.04443359375 44 L 924.04443359375 97 L 798 97 L 798 44 Z Z" stroke-miterlimit="10"/></g><g transform="translate(-22,-20) scale(1,1)"><path fill="none" stroke="#000000" d="M 840.4177734375 33 L 840.4177734375 37" stroke-miterlimit="10"/></g><g transform="translate(-22,-20) scale(1,1)"><path fill="none" stroke="#000000" d="M 837.4177734375 41 L 837.4177734375 37 L 843.4177734375 37" stroke-miterlimit="10"/></g><g transform="translate(-22,-20) scale(1,1)"><path fill="none" stroke="#000000" d="M 843.4177734375 41 L 843.4177734375 37 L 837.4177734375 37" stroke-miterlimit="10"/></g><g transform="translate(-22,-20) scale(1,1)"><g><path fill="none" stroke="none"/><text fill="#000000" stroke="none" font-family="Arial" font-size="13px" font-style="normal" font-weight="normal" text-decoration="none" x="842.236328125" y="62.5">«GUI»</text></g></g><g transform="translate(-22,-20) scale(1,1)"><g><path fill="none" stroke="none"/><text fill="#000000" stroke="none" font-family="Arial" font-size="13px" font-style="normal" font-weight="bold" text-decoration="none" x="806.4609375" y="77.5">Presentation Layer</text></g></g><g transform="translate(-22,-20) scale(1,1)"><g><path fill="none" stroke="none"/><text fill="#000000" stroke="none" font-family="Arial" font-size="13px" font-style="normal" font-weight="normal" text-decoration="none" x="811.9072265625" y="92.5">(from Three Tier)</text></g></g><g transform="translate(-22,-20) scale(1,1)"><path fill="none" stroke="#000000" d="M 798 76 L 738 76" stroke-miterlimit="10" stroke-dasharray="3"/></g><g transform="translate(-22,-20) scale(1,1)"><path fill="none" stroke="#000000" d="M 748.1626748576241 71.79048224398402 L 738 76 L 748.1626748576241 80.20951775601598" stroke-miterlimit="10"/></g><g transform="translate(-22,-20) scale(1,1)"><g><path fill="none" stroke="none"/><text fill="#000000" stroke="none" font-family="Arial" font-size="13px" font-style="normal" font-weight="normal" text-decoration="none" x="746.5" y="112.5">«uses»</text></g></g><g transform="translate(-22,-20) scale(1,1)"><path fill="none" stroke="#000000" d="M 486 76 L 383 76" stroke-miterlimit="10" stroke-dasharray="3"/></g><g transform="translate(-22,-20) scale(1,1)"><path fill="none" stroke="#000000" d="M 393.16267485762415 71.79048224398402 L 383 76 L 393.16267485762415 80.20951775601598" stroke-miterlimit="10"/></g><g transform="translate(-22,-20) scale(1,1)"><g><path fill="none" stroke="none"/><text fill="#000000" stroke="none" font-family="Arial" font-size="13px" font-style="normal" font-weight="normal" text-decoration="none" x="412.5" y="112.5">«uses»</text></g></g></g></svg>