<svg version="1.1" xmlns="http://www.w3.org/2000/svg" xmlns:xlink="http://www.w3.org/1999/xlink" width="486" height="595"><defs/><g><g transform="translate(-7,-54) scale(1,1)"><rect fill="#ffffff" stroke="none" x="168" y="64" width="315" height="575"/></g><g transform="translate(-7,-54) scale(1,1)"><path fill="none" stroke="#000000" d="M 168 64 L 483 64 L 483 639 L 168 639 L 168 64 Z Z" stroke-miterlimit="10"/></g><g transform="translate(-7,-54) scale(1,1)"><g><path fill="none" stroke="none"/><text fill="#000000" stroke="none" font-family="Arial" font-size="10px" font-style="normal" font-weight="bold" text-decoration="none" x="304.65771484375" y="80.5">App Flow</text></g></g><g transform="translate(-7,-54) scale(1,1)"><path fill="#ffffff" stroke="none" d="M 61.96428196022727 322.68 C 61.96428196022727 317.886167936 65.85012428517273 314 70.6435546875 314 C 75.43698508982727 314 79.32282741477273 317.886167936 79.32282741477273 322.68 C 79.32282741477273 327.473832064 75.43698508982727 331.36 70.6435546875 331.36 C 65.85012428517273 331.36 61.96428196022727 327.473832064 61.96428196022727 322.68 Z"/></g><g transform="translate(-7,-54) scale(1,1)"><path fill="none" stroke="#000000" d="M 61.96428196022727 322.68 C 61.96428196022727 317.886167936 65.85012428517273 314 70.6435546875 314 C 75.43698508982727 314 79.32282741477273 317.886167936 79.32282741477273 322.68 C 79.32282741477273 327.473832064 75.43698508982727 331.36 70.6435546875 331.36 C 65.85012428517273 331.36 61.96428196022727 327.473832064 61.96428196022727 322.68 Z" stroke-miterlimit="10"/></g><g transform="translate(-7,-54) scale(1,1)"><path fill="none" stroke="#000000" d="M 70.6435546875 331.36 L 70.6435546875 348.64" stroke-miterlimit="10"/></g><g transform="translate(-7,-54) scale(1,1)"><path fill="none" stroke="#000000" d="M 61.45373650568182 337.84 L 79.83337286931818 337.84" stroke-miterlimit="10"/></g><g transform="translate(-7,-54) scale(1,1)"><path fill="none" stroke="#000000" d="M 70.6435546875 348.64 L 57.879918323863635 366" stroke-miterlimit="10"/></g><g transform="translate(-7,-54) scale(1,1)"><path fill="none" stroke="#000000" d="M 70.6435546875 348.64 L 83.40719105113637 366" stroke-miterlimit="10"/></g><g transform="translate(-7,-54) scale(1,1)"><g><path fill="none" stroke="none"/><text fill="#000000" stroke="none" font-family="Arial" font-size="13px" font-style="normal" font-weight="bold" text-decoration="none" x="24.397705078125" y="386.5">Sales Executive</text></g></g><g transform="translate(-7,-54) scale(1,1)"><path fill="#ffffff" stroke="none" d="M 185 223 C 185 211.4020192 215.220776 202 252.5 202 C 289.779224 202 320 211.4020192 320 223 C 320 234.5979808 289.779224 244 252.5 244 C 215.220776 244 185 234.5979808 185 223 Z"/></g><g transform="translate(-7,-54) scale(1,1)"><path fill="none" stroke="#000000" d="M 185 223 C 185 211.4020192 215.220776 202 252.5 202 C 289.779224 202 320 211.4020192 320 223 C 320 234.5979808 289.779224 244 252.5 244 C 215.220776 244 185 234.5979808 185 223 Z" stroke-miterlimit="10"/></g><g transform="translate(-7,-54) scale(1,1)"><g><path fill="none" stroke="none"/><text fill="#000000" stroke="none" font-family="Arial" font-size="10px" font-style="normal" font-weight="bold" text-decoration="none" x="217.7587890625" y="228.5">Manage Clients</text></g></g><g transform="translate(-7,-54) scale(1,1)"><path fill="none" stroke="#000000" d="M 125 344 Q 155 339 148 277 Q 141 215 184 218" stroke-miterlimit="10"/></g><g transform="translate(-7,-54) scale(1,1)"><path fill="#ffffff" stroke="none" d="M 349 125 C 349 115.6111584 376.5344848 108 410.5 108 C 444.4655152 108 472 115.6111584 472 125 C 472 134.3888416 444.4655152 142 410.5 142 C 376.5344848 142 349 134.3888416 349 125 Z"/></g><g transform="translate(-7,-54) scale(1,1)"><path fill="none" stroke="#000000" d="M 349 125 C 349 115.6111584 376.5344848 108 410.5 108 C 444.4655152 108 472 115.6111584 472 125 C 472 134.3888416 444.4655152 142 410.5 142 C 376.5344848 142 349 134.3888416 349 125 Z" stroke-miterlimit="10"/></g><g transform="translate(-7,-54) scale(1,1)"><g><path fill="none" stroke="none"/><text fill="#000000" stroke="none" font-family="Arial" font-size="10px" font-style="normal" font-weight="bold" text-decoration="none" x="387.43115234375" y="130.5">Add Client</text></g></g><g transform="translate(-7,-54) scale(1,1)"><path fill="#ffffff" stroke="none" d="M 349 176 C 349 166.6111584 376.5344848 159 410.5 159 C 444.4655152 159 472 166.6111584 472 176 C 472 185.3888416 444.4655152 193 410.5 193 C 376.5344848 193 349 185.3888416 349 176 Z"/></g><g transform="translate(-7,-54) scale(1,1)"><path fill="none" stroke="#000000" d="M 349 176 C 349 166.6111584 376.5344848 159 410.5 159 C 444.4655152 159 472 166.6111584 472 176 C 472 185.3888416 444.4655152 193 410.5 193 C 376.5344848 193 349 185.3888416 349 176 Z" stroke-miterlimit="10"/></g><g transform="translate(-7,-54) scale(1,1)"><g><path fill="none" stroke="none"/><text fill="#000000" stroke="none" font-family="Arial" font-size="10px" font-style="normal" font-weight="bold" text-decoration="none" x="388.2685546875" y="181.5">Get Client</text></g></g><g transform="translate(-7,-54) scale(1,1)"><path fill="#ffffff" stroke="none" d="M 349 227 C 349 217.6111584 376.5344848 210 410.5 210 C 444.4655152 210 472 217.6111584 472 227 C 472 236.3888416 444.4655152 244 410.5 244 C 376.5344848 244 349 236.3888416 349 227 Z"/></g><g transform="translate(-7,-54) scale(1,1)"><path fill="none" stroke="#000000" d="M 349 227 C 349 217.6111584 376.5344848 210 410.5 210 C 444.4655152 210 472 217.6111584 472 227 C 472 236.3888416 444.4655152 244 410.5 244 C 376.5344848 244 349 236.3888416 349 227 Z" stroke-miterlimit="10"/></g><g transform="translate(-7,-54) scale(1,1)"><g><path fill="none" stroke="none"/><text fill="#000000" stroke="none" font-family="Arial" font-size="10px" font-style="normal" font-weight="bold" text-decoration="none" x="381.87451171875" y="232.5">Delete Client</text></g></g><g transform="translate(-7,-54) scale(1,1)"><path fill="#ffffff" stroke="none" d="M 349 278 C 349 268.6111584 376.5344848 261 410.5 261 C 444.4655152 261 472 268.6111584 472 278 C 472 287.3888416 444.4655152 295 410.5 295 C 376.5344848 295 349 287.3888416 349 278 Z"/></g><g transform="translate(-7,-54) scale(1,1)"><path fill="none" stroke="#000000" d="M 349 278 C 349 268.6111584 376.5344848 261 410.5 261 C 444.4655152 261 472 268.6111584 472 278 C 472 287.3888416 444.4655152 295 410.5 295 C 376.5344848 295 349 287.3888416 349 278 Z" stroke-miterlimit="10"/></g><g transform="translate(-7,-54) scale(1,1)"><g><path fill="none" stroke="none"/><text fill="#000000" stroke="none" font-family="Arial" font-size="10px" font-style="normal" font-weight="bold" text-decoration="none" x="380.20458984375" y="283.5">Update Client</text></g></g><g transform="translate(-7,-54) scale(1,1)"><path fill="#ffffff" stroke="none" d="M 349 329 C 349 319.6111584 376.5344848 312 410.5 312 C 444.4655152 312 472 319.6111584 472 329 C 472 338.3888416 444.4655152 346 410.5 346 C 376.5344848 346 349 338.3888416 349 329 Z"/></g><g transform="translate(-7,-54) scale(1,1)"><path fill="none" stroke="#000000" d="M 349 329 C 349 319.6111584 376.5344848 312 410.5 312 C 444.4655152 312 472 319.6111584 472 329 C 472 338.3888416 444.4655152 346 410.5 346 C 376.5344848 346 349 338.3888416 349 329 Z" stroke-miterlimit="10"/></g><g transform="translate(-7,-54) scale(1,1)"><g><path fill="none" stroke="none"/><text fill="#000000" stroke="none" font-family="Arial" font-size="10px" font-style="normal" font-weight="bold" text-decoration="none" x="386.046875" y="334.5">List Clients</text></g></g><g transform="translate(-7,-54) scale(1,1)"><path fill="none" stroke="#000000" d="M 348 126 Q 252 128 252 201" stroke-miterlimit="10" stroke-dasharray="3"/></g><g transform="translate(-7,-54) scale(1,1)"><path fill="none" stroke="#000000" d="M 247.790482243984 190.83732514237585 L 252 201 L 256.209517756016 190.83732514237585" stroke-miterlimit="10"/></g><g transform="translate(-7,-54) scale(1,1)"><g><path fill="none" stroke="none"/><text fill="#000000" stroke="none" font-family="Arial" font-size="10px" font-style="normal" font-weight="normal" text-decoration="none" x="302.5" y="122.5">«extend»</text></g></g><g transform="translate(-7,-54) scale(1,1)"><path fill="none" stroke="#000000" d="M 348 178 Q 290 180 271 201" stroke-miterlimit="10" stroke-dasharray="3"/></g><g transform="translate(-7,-54) scale(1,1)"><path fill="none" stroke="#000000" d="M 274.6967659402034 190.63979143147438 L 271 201 L 280.93978199808873 196.28823453146586" stroke-miterlimit="10"/></g><g transform="translate(-7,-54) scale(1,1)"><g><path fill="none" stroke="none"/><text fill="#000000" stroke="none" font-family="Arial" font-size="10px" font-style="normal" font-weight="normal" text-decoration="none" x="304.5" y="173.5">«extend»</text></g></g><g transform="translate(-7,-54) scale(1,1)"><path fill="none" stroke="#000000" d="M 348 225 L 321 225" stroke-miterlimit="10" stroke-dasharray="3"/></g><g transform="translate(-7,-54) scale(1,1)"><path fill="none" stroke="#000000" d="M 331.16267485762415 220.790482243984 L 321 225 L 331.16267485762415 229.209517756016" stroke-miterlimit="10"/></g><g transform="translate(-7,-54) scale(1,1)"><g><path fill="none" stroke="none"/><text fill="#000000" stroke="none" font-family="Arial" font-size="10px" font-style="normal" font-weight="normal" text-decoration="none" x="308.5" y="242.5">«extend»</text></g></g><g transform="translate(-7,-54) scale(1,1)"><path fill="none" stroke="#000000" d="M 348 277 Q 304 276 274 245" stroke-miterlimit="10" stroke-dasharray="3"/></g><g transform="translate(-7,-54) scale(1,1)"><path fill="none" stroke="#000000" d="M 284.0923103321481 249.37553107172337 L 274 245 L 278.04237338159294 255.230308765809" stroke-miterlimit="10"/></g><g transform="translate(-7,-54) scale(1,1)"><g><path fill="none" stroke="none"/><text fill="#000000" stroke="none" font-family="Arial" font-size="10px" font-style="normal" font-weight="normal" text-decoration="none" x="298.5" y="293.5">«extend»</text></g></g><g transform="translate(-7,-54) scale(1,1)"><path fill="none" stroke="#000000" d="M 348 328 Q 252 327 252 245" stroke-miterlimit="10" stroke-dasharray="3"/></g><g transform="translate(-7,-54) scale(1,1)"><path fill="none" stroke="#000000" d="M 256.209517756016 255.16267485762415 L 252 245 L 247.790482243984 255.16267485762415" stroke-miterlimit="10"/></g><g transform="translate(-7,-54) scale(1,1)"><g><path fill="none" stroke="none"/><text fill="#000000" stroke="none" font-family="Arial" font-size="10px" font-style="normal" font-weight="normal" text-decoration="none" x="303.5" y="347.5">«extend»</text></g></g><g transform="translate(-7,-54) scale(1,1)"><path fill="#ffffff" stroke="none" d="M 185 504 C 185 492.4020192 215.220776 483 252.5 483 C 289.779224 483 320 492.4020192 320 504 C 320 515.5979808 289.779224 525 252.5 525 C 215.220776 525 185 515.5979808 185 504 Z"/></g><g transform="translate(-7,-54) scale(1,1)"><path fill="none" stroke="#000000" d="M 185 504 C 185 492.4020192 215.220776 483 252.5 483 C 289.779224 483 320 492.4020192 320 504 C 320 515.5979808 289.779224 525 252.5 525 C 215.220776 525 185 515.5979808 185 504 Z" stroke-miterlimit="10"/></g><g transform="translate(-7,-54) scale(1,1)"><g><path fill="none" stroke="none"/><text fill="#000000" stroke="none" font-family="Arial" font-size="10px" font-style="normal" font-weight="bold" text-decoration="none" x="211.6455078125" y="509.5">Manage Contracts</text></g></g><g transform="translate(-7,-54) scale(1,1)"><path fill="none" stroke="#000000" d="M 125 365 Q 156 372 149.5 440 Q 143 508 184 506" stroke-miterlimit="10"/></g><g transform="translate(-7,-54) scale(1,1)"><path fill="#ffffff" stroke="none" d="M 349 409 C 349 399.6111584 376.5344848 392 410.5 392 C 444.4655152 392 472 399.6111584 472 409 C 472 418.3888416 444.4655152 426 410.5 426 C 376.5344848 426 349 418.3888416 349 409 Z"/></g><g transform="translate(-7,-54) scale(1,1)"><path fill="none" stroke="#000000" d="M 349 409 C 349 399.6111584 376.5344848 392 410.5 392 C 444.4655152 392 472 399.6111584 472 409 C 472 418.3888416 444.4655152 426 410.5 426 C 376.5344848 426 349 418.3888416 349 409 Z" stroke-miterlimit="10"/></g><g transform="translate(-7,-54) scale(1,1)"><g><path fill="none" stroke="none"/><text fill="#000000" stroke="none" font-family="Arial" font-size="10px" font-style="normal" font-weight="bold" text-decoration="none" x="381.31787109375" y="414.5">Add Contract</text></g></g><g transform="translate(-7,-54) scale(1,1)"><path fill="#ffffff" stroke="none" d="M 349 454 C 349 444.6111584 376.5344848 437 410.5 437 C 444.4655152 437 472 444.6111584 472 454 C 472 463.3888416 444.4655152 471 410.5 471 C 376.5344848 471 349 463.3888416 349 454 Z"/></g><g transform="translate(-7,-54) scale(1,1)"><path fill="none" stroke="#000000" d="M 349 454 C 349 444.6111584 376.5344848 437 410.5 437 C 444.4655152 437 472 444.6111584 472 454 C 472 463.3888416 444.4655152 471 410.5 471 C 376.5344848 471 349 463.3888416 349 454 Z" stroke-miterlimit="10"/></g><g transform="translate(-7,-54) scale(1,1)"><g><path fill="none" stroke="none"/><text fill="#000000" stroke="none" font-family="Arial" font-size="10px" font-style="normal" font-weight="bold" text-decoration="none" x="382.1552734375" y="459.5">Get Contract</text></g></g><g transform="translate(-7,-54) scale(1,1)"><path fill="#ffffff" stroke="none" d="M 349 499 C 349 489.6111584 376.5344848 482 410.5 482 C 444.4655152 482 472 489.6111584 472 499 C 472 508.3888416 444.4655152 516 410.5 516 C 376.5344848 516 349 508.3888416 349 499 Z"/></g><g transform="translate(-7,-54) scale(1,1)"><path fill="none" stroke="#000000" d="M 349 499 C 349 489.6111584 376.5344848 482 410.5 482 C 444.4655152 482 472 489.6111584 472 499 C 472 508.3888416 444.4655152 516 410.5 516 C 376.5344848 516 349 508.3888416 349 499 Z" stroke-miterlimit="10"/></g><g transform="translate(-7,-54) scale(1,1)"><g><path fill="none" stroke="none"/><text fill="#000000" stroke="none" font-family="Arial" font-size="10px" font-style="normal" font-weight="bold" text-decoration="none" x="375.76123046875" y="504.5">Delete Contract</text></g></g><g transform="translate(-7,-54) scale(1,1)"><path fill="#ffffff" stroke="none" d="M 349 544 C 349 534.6111584 376.5344848 527 410.5 527 C 444.4655152 527 472 534.6111584 472 544 C 472 553.3888416 444.4655152 561 410.5 561 C 376.5344848 561 349 553.3888416 349 544 Z"/></g><g transform="translate(-7,-54) scale(1,1)"><path fill="none" stroke="#000000" d="M 349 544 C 349 534.6111584 376.5344848 527 410.5 527 C 444.4655152 527 472 534.6111584 472 544 C 472 553.3888416 444.4655152 561 410.5 561 C 376.5344848 561 349 553.3888416 349 544 Z" stroke-miterlimit="10"/></g><g transform="translate(-7,-54) scale(1,1)"><g><path fill="none" stroke="none"/><text fill="#000000" stroke="none" font-family="Arial" font-size="10px" font-style="normal" font-weight="bold" text-decoration="none" x="374.09130859375" y="549.5">Update Contract</text></g></g><g transform="translate(-7,-54) scale(1,1)"><path fill="#ffffff" stroke="none" d="M 349 589 C 349 579.6111584 376.5344848 572 410.5 572 C 444.4655152 572 472 579.6111584 472 589 C 472 598.3888416 444.4655152 606 410.5 606 C 376.5344848 606 349 598.3888416 349 589 Z"/></g><g transform="translate(-7,-54) scale(1,1)"><path fill="none" stroke="#000000" d="M 349 589 C 349 579.6111584 376.5344848 572 410.5 572 C 444.4655152 572 472 579.6111584 472 589 C 472 598.3888416 444.4655152 606 410.5 606 C 376.5344848 606 349 598.3888416 349 589 Z" stroke-miterlimit="10"/></g><g transform="translate(-7,-54) scale(1,1)"><g><path fill="none" stroke="none"/><text fill="#000000" stroke="none" font-family="Arial" font-size="10px" font-style="normal" font-weight="bold" text-decoration="none" x="379.93359375" y="594.5">List Contracts</text></g></g><g transform="translate(-7,-54) scale(1,1)"><path fill="none" stroke="#000000" d="M 348 410 Q 251 411 252 482" stroke-miterlimit="10" stroke-dasharray="3"/></g><g transform="translate(-7,-54) scale(1,1)"><path fill="none" stroke="#000000" d="M 247.64777763941728 471.8976160969777 L 252 482 L 256.0659782195771 471.77904989162334" stroke-miterlimit="10"/></g><g transform="translate(-7,-54) scale(1,1)"><g><path fill="none" stroke="none"/><text fill="#000000" stroke="none" font-family="Arial" font-size="10px" font-style="normal" font-weight="normal" text-decoration="none" x="307.5" y="404.5">«extend»</text></g></g><g transform="translate(-7,-54) scale(1,1)"><path fill="none" stroke="#000000" d="M 348 453 Q 305 453 275 482" stroke-miterlimit="10" stroke-dasharray="3"/></g><g transform="translate(-7,-54) scale(1,1)"><path fill="none" stroke="#000000" d="M 279.3811372346954 471.9101220755271 L 275 482 L 285.23255294970124 477.96331074622276" stroke-miterlimit="10"/></g><g transform="translate(-7,-54) scale(1,1)"><g><path fill="none" stroke="none"/><text fill="#000000" stroke="none" font-family="Arial" font-size="10px" font-style="normal" font-weight="normal" text-decoration="none" x="310.5" y="448.5">«extend»</text></g></g><g transform="translate(-7,-54) scale(1,1)"><path fill="none" stroke="#000000" d="M 348 501 L 321 502" stroke-miterlimit="10" stroke-dasharray="3"/></g><g transform="translate(-7,-54) scale(1,1)"><path fill="none" stroke="#000000" d="M 330.9999104938764 497.41722899170594 L 321 502 L 331.3115129780684 505.8304960648887" stroke-miterlimit="10"/></g><g transform="translate(-7,-54) scale(1,1)"><g><path fill="none" stroke="none"/><text fill="#000000" stroke="none" font-family="Arial" font-size="10px" font-style="normal" font-weight="normal" text-decoration="none" x="316.5" y="515.5">«extend»</text></g></g><g transform="translate(-7,-54) scale(1,1)"><path fill="none" stroke="#000000" d="M 348 546 Q 306 548 279 526" stroke-miterlimit="10" stroke-dasharray="3"/></g><g transform="translate(-7,-54) scale(1,1)"><path fill="none" stroke="#000000" d="M 289.53749959997964 529.1561213823978 L 279 526 L 284.21942259215473 535.6828522556375" stroke-miterlimit="10"/></g><g transform="translate(-7,-54) scale(1,1)"><g><path fill="none" stroke="none"/><text fill="#000000" stroke="none" font-family="Arial" font-size="10px" font-style="normal" font-weight="normal" text-decoration="none" x="311.5" y="558.5">«extend»</text></g></g><g transform="translate(-7,-54) scale(1,1)"><path fill="none" stroke="#000000" d="M 348 589 Q 253 590 252 526" stroke-miterlimit="10" stroke-dasharray="3"/></g><g transform="translate(-7,-54) scale(1,1)"><path fill="none" stroke="#000000" d="M 256.36777640737387 536.0956688364461 L 252 526 L 247.94976842149597 536.2272002112254" stroke-miterlimit="10"/></g><g transform="translate(-7,-54) scale(1,1)"><g><path fill="none" stroke="none"/><text fill="#000000" stroke="none" font-family="Arial" font-size="10px" font-style="normal" font-weight="normal" text-decoration="none" x="305.5" y="599.5">«extend»</text></g></g></g></svg>